<svg width="844" height="418" viewBox="0 0 844 418" fill="none" xmlns="http://www.w3.org/2000/svg">
<path d="M714.042 176.139C716.734 176.878 717.552 165.686 712.49 167.238C707.422 168.79 710.854 175.243 714.042 176.139Z" fill="#529945" style="fill:#529945;fill:color(display-p3 0.3216 0.6000 0.2706);fill-opacity:1;"/>
<path d="M481.927 9.6974C481.927 9.6974 480.214 12.062 484.297 12.062C488.464 12.062 497.037 9.28594 503.896 9.28594C510.76 9.28594 508.719 6.91615 507.328 6.91615C505.938 6.91615 502.182 3.16094 496.708 3.48907C491.24 3.81719 491.568 6.26511 488.135 6.26511C484.703 6.26511 485.359 5.20261 478.172 5.61407C470.984 5.93698 478.172 9.04115 481.927 9.6974Z" fill="#529945" style="fill:#529945;fill:color(display-p3 0.3216 0.6000 0.2706);fill-opacity:1;"/>
<path d="M720.979 208.976C723.271 210.528 723.677 213.226 723.271 217.47C722.859 221.715 719.021 221.309 725.557 224.007C732.089 226.7 739.849 231.356 737.885 222.861C735.927 214.366 737.479 213.226 730.537 206.606C723.594 200.075 723.188 204.319 722.453 198.851C721.719 193.46 719.755 183.413 717.063 187.252C714.693 190.684 712.813 191.908 715.51 197.705C718.287 203.585 718.615 207.424 720.979 208.976Z" fill="#529945" style="fill:#529945;fill:color(display-p3 0.3216 0.6000 0.2706);fill-opacity:1;"/>
<path d="M787.792 258.386C782.724 252.995 774.234 249.079 770.802 249.485C767.292 249.891 764.266 255.282 762.307 253.324C760.349 251.365 754.547 242.136 751.526 244.829C748.422 247.527 751.938 250.631 748.016 250.631C744.177 250.631 743.031 255.282 742.219 249.079C741.479 242.87 738.38 239.766 737.563 244.423C736.828 249.079 736.417 252.183 734.458 248.667C732.5 245.157 731.354 247.527 731.354 244.011C731.354 240.501 723.594 236.662 720.573 240.501C718.615 242.954 717.88 243.199 717.063 248.589C716.328 253.975 714.365 262.469 718.615 260.183C722.859 257.897 723.677 259.777 725.557 257.079C727.516 254.386 729.802 252.834 733.313 254.386C736.828 255.938 735.276 255.938 741.401 255.12C747.604 254.386 750.63 254.386 754.958 257.079C759.203 259.777 767.698 258.225 767.698 260.917C767.698 263.615 758.797 265.574 767.698 268.272C776.599 270.964 778.479 277.173 781.255 274.068C783.953 270.964 787.792 266.719 790.568 269.824C793.261 272.923 803.714 281.417 801.755 276.761C799.797 272.11 800.203 267.86 806.412 262.881C812.62 257.897 811.068 255.527 808.37 255.527C805.677 255.527 805.677 259.042 799.469 259.777C793.182 260.756 792.854 263.777 787.792 258.386Z" fill="#529945" style="fill:#529945;fill:color(display-p3 0.3216 0.6000 0.2706);fill-opacity:1;"/>
<path d="M426.229 17.0483C426.636 17.1317 426.964 17.2098 427.292 17.2931C430.719 18.6786 433.172 16.6369 433.495 13.8608C437.255 8.3921 435.865 18.3556 440.031 16.6369C444.115 14.9233 449.995 10.7567 454.813 8.3921C459.63 6.02231 448.932 7.00147 440.354 5.61606C431.781 4.22543 419.693 6.67335 416.266 9.04314C413.078 11.2515 421.245 15.5796 426.229 17.0483Z" fill="#529945" style="fill:#529945;fill:color(display-p3 0.3216 0.6000 0.2706);fill-opacity:1;"/>
<path d="M706.281 222.453C703.911 225.474 699.339 232.089 696.234 234.458C693.13 236.745 687.74 233.724 688.151 239.115C688.557 244.5 688.885 246.87 689.292 250.708C689.703 254.547 690.438 256.917 696.234 256.917C702.031 256.917 704.729 258.875 706.688 258.062C708.651 257.323 708.24 253.812 710.526 249.156C712.813 244.5 716.734 245.646 715.182 242.214C713.63 238.703 713.63 239.521 713.63 236.01C713.63 232.495 715.594 234.865 714.448 229.068C713.224 223.266 708.974 219.021 706.281 222.453Z" fill="#529945" style="fill:#529945;fill:color(display-p3 0.3216 0.6000 0.2706);fill-opacity:1;"/>
<path d="M719.51 276.109C724.984 276.76 729.151 276.109 732.906 274.068C736.662 272.026 734.948 269.578 734.62 268.594C734.292 267.536 731.516 269.656 727.76 270.312C724.005 270.963 722.943 270.963 718.125 271.375C713.302 271.698 716.406 269.656 711.26 269.333C706.12 269.005 700.974 267.943 695.094 265.901C689.214 263.859 686.188 262.146 682.026 260.755C677.859 259.364 681.698 257 681.37 251.12C681.042 245.239 677.203 247.687 674.182 245.646C671.078 243.604 672.141 239.114 673.531 240.5C674.917 241.89 675.245 243.604 675.245 236.333C675.245 229.146 668.714 224.328 664.63 218.125C660.464 211.917 661.198 208.484 661.526 205.38C661.849 202.276 669.12 208.156 672.875 212.568C676.635 217.062 676.635 217.062 678.755 216C680.797 214.937 687.005 211.505 688.396 206.036C689.781 200.562 677.37 189.536 675.656 184.39C673.938 179.245 678.021 182.349 680.146 178.922C682.188 175.489 684.635 180.307 683.25 182.677C681.859 185.047 683.578 186.432 684.964 188.885C686.354 191.25 686.354 188.885 687.74 185.781C689.13 182.677 688.068 181.614 690.516 179.573C692.969 177.531 702.198 174.755 704.646 172.385C707.099 170.015 708.813 167.239 711.833 158.666C714.938 150.088 711.505 150.416 710.12 147.312C708.729 144.208 704.646 139.062 702.198 135.958C699.828 132.859 701.87 133.594 703.583 132.531C705.302 131.469 703.912 129.099 699.828 127.713C695.662 126.323 696.401 129.099 692.641 128.364C688.885 127.713 690.927 124.932 695.01 120.114C699.177 115.297 697.052 121.177 699.828 123.219C702.604 125.26 703.26 121.505 705.302 122.568C707.344 123.63 711.51 125.672 714.609 129.755C717.714 133.838 717.714 138.656 720.818 138.328C723.922 138 723.922 136.614 725.313 133.51C726.698 130.406 721.552 127.63 719.104 125.26C716.651 122.89 714.287 122.89 716.328 120.771C718.37 118.729 716.651 115.625 717.714 113.172C718.776 110.807 722.531 112.114 726.292 110.396C730.047 108.682 730.375 102.802 730.375 96.6769C730.375 90.4686 727.271 87.7759 725.557 85.6509C723.839 83.6092 727.599 84.5884 730.703 87.0363C733.802 89.4061 738.625 102.474 739.604 107.703C740.667 112.849 739.932 112.849 744.094 117.338C748.26 121.833 746.87 121.094 745.484 126.239C744.094 131.385 740.667 132.776 735.521 134.161C730.375 135.552 732.089 136.531 728.984 141.76C725.88 146.906 730.703 147.229 733.479 148.62C736.255 150.01 737.563 144.864 741.073 142.411C744.505 140.041 748.26 138.245 754.141 138.245C760.021 138.245 752.427 130.323 752.099 126.239C751.771 122.156 751.448 119.38 750.057 116.276C748.667 113.172 751.448 113.172 755.531 111.13C759.615 109.088 759.287 104.927 756.917 104.927C754.547 104.927 752.427 106.64 746.953 106.312C741.479 105.984 742.87 101.495 741.479 99.7811C740.094 98.0623 738.38 94.3071 738.052 91.203C737.724 88.0988 732.906 84.0154 729.474 80.9113C726.047 77.8123 724.005 75.7707 724.005 77.1561C724.005 78.5467 721.964 76.8279 717.141 76.505C712.323 76.1769 711.26 77.1561 707.177 76.828C703.016 76.505 707.505 69.6405 709.219 64.8227C710.938 60.005 715.755 62.7811 719.51 62.7811C723.271 62.7811 724.984 63.1092 730.537 64.4998C736.01 65.8852 733.641 61.0675 734.703 57.3123C735.766 53.5519 738.135 55.5936 741.234 56.9842C744.339 58.3696 745.318 58.6977 745.318 55.5936C745.318 52.4894 748.099 51.8384 750.464 54.5311C752.833 57.3123 746.302 63.1092 746.302 63.1092C746.302 63.1092 744.26 69.3175 748.016 71.3592C751.771 73.4009 759.37 82.3852 763.859 85.4894C768.349 88.5884 765.25 80.3436 765.25 74.4634C765.25 68.5832 761.167 69.3175 758.063 63.8436C754.958 58.3696 757 60.7394 762.88 60.7394C768.76 60.7394 769.089 58.6977 770.474 56.9842C771.865 55.2707 772.844 54.9425 778.073 54.9425C783.214 54.9425 780.115 52.9009 777.745 50.1248C775.375 47.3488 770.557 48.0832 772.271 46.3644C773.984 44.6509 783.297 47.4269 787.708 49.1405C792.198 50.8592 791.135 49.4686 790.484 45.3852C789.833 41.3019 785.995 44.3227 775.047 40.2394C764.021 36.1561 752.016 33.7082 748.26 33.7082C744.505 33.7082 747.198 31.3384 749.974 31.3384C752.75 31.3384 752.016 28.9686 749.323 27.5832C746.547 26.1925 744.177 27.255 743.115 30.3592C742.052 33.4634 746.219 33.7863 738.297 33.7863C730.375 33.7863 724.573 33.7863 715.266 32.0727C705.953 30.3592 702.526 30.3592 694.604 30.0311C686.677 29.703 687.417 26.2759 679.167 26.2759C670.917 26.2759 673.693 23.1717 670.266 19.4165C666.833 15.6561 665.12 16.6352 654.828 16.6352C644.537 16.6352 650.01 20.7186 652.052 21.4582C654.094 22.1092 659.646 23.8227 663.401 27.3384C667.162 30.7655 656.542 29.38 652.052 29.703C647.557 30.0311 647.969 27.3384 642.74 24.2342C637.594 21.13 624.854 22.8436 617.667 22.5155C610.479 22.1925 610.073 22.5155 607.375 17.3748C604.599 12.229 598.802 15.005 591.203 15.005C583.609 15.005 579.526 11.2498 575.771 8.7967C572.01 6.42691 566.13 6.02066 557.88 4.71337C549.635 3.32275 554.125 9.8592 557.229 10.1873C557.229 10.1873 560.662 11.5727 564.089 11.9009C567.521 12.229 574.787 12.5519 578.547 17.0467C582.302 21.5363 566.865 19.8227 560.005 23.578C553.146 27.3384 547.594 25.6196 542.854 27.6613C538.037 29.703 545.224 33.1352 547.021 37.6248C548.734 42.1196 547.021 42.1196 543.917 43.0988C540.813 44.1613 544.979 38.2811 543.589 36.5675C542.203 34.8488 537.057 25.9477 532.974 23.1717C528.807 20.3957 529.542 25.5415 530.198 29.38C530.849 33.1352 531.912 33.1352 532.974 35.9113C534.037 38.6873 528.479 35.9113 525.787 33.8696C523.01 31.828 514.104 36.6457 509.943 34.5259C505.859 32.4842 511.328 33.1352 511.328 31.0936C511.328 29.0519 506.51 30.7655 505.125 27.6613C503.734 24.5623 513.698 20.8019 519.906 19.7394C526.115 18.6769 525.375 18.6769 525.375 15.6561C525.375 12.5519 514.349 13.6144 505.125 18.0259C495.813 22.5155 498.26 25.6196 496.875 28.6457C495.484 31.7446 499.979 32.0727 502.021 33.7863C504.063 35.505 499.651 36.1561 495.484 37.5467C491.401 38.9321 490.339 37.5467 485.521 39.2602C480.703 40.9738 483.479 43.0155 479.313 44.7342C475.229 46.4477 475.557 46.4477 472.125 47.8384C468.698 49.2238 472.781 42.6925 477.599 41.9582C482.417 41.3019 481.031 38.5259 479.641 37.4634C478.25 36.4009 469.349 33.7082 459.714 30.9321C450.078 28.1509 434.641 31.9894 429.495 34.3592C424.349 36.729 424.677 38.5259 424.021 41.9582C423.37 45.3852 411.609 50.5311 405.807 53.6352C399.927 56.7394 405.156 60.8227 406.87 63.5988C408.589 66.3748 412.344 64.9894 417.162 63.5988C421.979 62.2082 421.245 68.0884 421.979 70.1352C422.635 72.1769 425.412 72.4998 429.901 70.4582C434.396 68.4165 433.333 63.5988 433.333 60.8227C433.333 58.0467 432.271 56.6561 435.375 52.9009C438.479 49.1405 441.255 46.6925 443.948 44.979C446.729 43.2602 446.318 46.3644 442.234 49.7967C438.151 53.229 440.849 54.2863 442.891 58.3696C444.932 62.5363 449.094 58.3696 454.24 57.7186C459.385 57.0675 449.75 62.2082 445.995 62.2082C442.234 62.2082 445.995 66.2967 443.625 66.2967C441.255 66.2967 440.849 68.0102 440.521 72.1769C440.193 76.3384 438.807 75.2759 436.026 76.3384C433.25 77.4009 429.167 77.729 424.677 76.6665C420.182 75.604 420.594 71.5207 417.49 68.7446C414.385 65.9686 413.729 70.1352 413.729 71.8488C413.729 73.5623 410.63 77.3175 409.24 77.3175C407.849 77.3175 403.766 81.4842 401.318 84.9165C398.948 88.3436 397.234 86.3019 396.5 84.9165C395.844 83.5259 398.214 81.4842 396.828 78.0571C395.438 74.6248 389.964 71.8488 391.682 63.9269C393.396 56.005 389.641 60.1665 384.083 60.8227C378.615 61.4738 376.896 63.9269 376.49 65.9686C376.162 68.0102 373.057 72.1769 369.63 75.9321C366.198 79.6873 368.568 82.7915 370.281 86.9582C371.995 91.1248 376.49 85.5675 377.88 82.1405C379.266 78.7082 380.979 76.9946 383.021 78.7082C385.063 80.4217 379.922 83.5259 379.266 87.6092C378.615 91.7759 380.656 91.3696 385.474 89.979C390.292 88.5884 387.844 87.6092 391.682 89.328C395.438 91.0415 388.25 92.4269 383.76 92.755C379.266 93.0832 380.979 96.1873 384.818 98.9634C388.578 101.739 386.859 105.823 384.495 106.151C382.125 106.479 377.63 107.213 370.771 108.521C363.912 109.906 370.12 115.38 368.729 118.484C367.344 121.588 367.016 128.448 370.12 128.771C373.224 129.099 373.224 134.245 371.505 135.958C369.792 137.677 369.464 139.39 365.302 142.495C361.135 145.599 364.24 148.375 362.932 152.458C361.542 156.541 358.115 154.172 354.031 158.666C349.948 163.156 348.151 166.588 345.125 171.734C342.026 176.88 341.698 177.203 345.453 183.411C349.208 189.62 345.453 191.333 342.349 196.807C339.245 202.276 343.412 202.687 344.719 207.422C346.109 212.239 348.885 211.182 349.865 216C350.927 220.818 352.234 222.208 357.052 225.635C361.87 229.068 366.688 233.885 369.057 232.823C371.427 231.76 375.266 229.068 383.188 229.39C391.109 229.719 388.333 225.963 396.578 224.573C404.828 223.187 400.339 225.635 401.401 228.005C402.464 230.453 406.87 232.823 413.078 233.151C419.287 233.479 414.141 241.073 413.729 245.89C413.406 250.708 413.729 250.708 416.833 254.791C419.938 258.875 424.021 268.187 425.083 273.005C426.146 277.823 424.021 283.297 421.328 287.786C418.552 292.281 419.615 302.573 425.412 310.166C431.292 317.76 427.781 317.354 427.781 325.276C427.781 333.198 431.943 331.807 434.969 336.302C438.068 340.792 436.682 349.041 439.458 353.453C442.234 357.943 447.052 353.781 452.526 351.739C458 349.698 460.448 350.349 466.984 345.531C473.516 340.713 478.662 331.073 478.662 328.38C478.662 325.604 480.703 324.625 484.135 323.234C487.563 321.844 486.912 312.943 486.5 310.495C486.177 308.125 487.156 306 488.542 304.614C489.932 303.224 498.505 294.974 501.609 291.547C504.714 288.114 501.938 283.297 501.287 277.823C500.63 272.354 498.505 270.229 498.505 263.698C498.505 257.161 496.464 257.812 507.818 247.198C519.172 236.578 529.787 219.672 530.849 215.916C531.912 212.161 531.505 209.057 530.849 206.281C530.198 203.505 515.412 209.057 511.984 209.057C508.552 209.057 502.344 201.463 501.693 198.765C501.042 195.989 495.813 193.291 491.401 189.13C486.912 185.047 490.339 179.166 486.912 174.672C483.479 170.182 481.766 163.646 481.031 159.89C480.375 156.135 486.177 162.666 490.667 167.812C495.156 172.958 500.958 182.594 502.672 186.026C504.385 189.453 505.776 194.599 506.104 198.765C506.427 202.849 509.208 203.583 513.292 203.26C517.375 202.932 531.828 195.338 536.974 192.969C542.12 190.599 548.328 183.328 550.698 176.469C553.063 169.609 545.552 170.588 542.12 167.161C538.688 163.729 538.688 167.161 534.526 168.219C530.443 169.281 526.927 163.729 520.396 157.604C513.859 151.396 518.026 153.521 519.333 152.13C520.641 150.745 527.255 155.234 531.01 159.729C534.771 164.219 535.505 162.505 539.917 162.505C544.406 162.505 545.385 164.547 551.266 166.26C557.146 167.974 560.172 165.609 565.234 166.099C570.214 166.588 569.479 169.036 572.99 174.51C576.422 179.979 575.037 178.265 582.63 179C590.224 179.656 584.672 179 584.672 183.818C584.672 188.64 585.323 190.354 589.818 196.234C594.307 202.114 596.026 213.057 597.412 218.614C598.802 224.083 601.578 218.614 605.99 218.614C610.479 218.614 606.313 222.37 609.745 227.922C613.177 233.396 615.625 226.208 615.625 224.166C615.625 222.125 613.583 216.979 611.542 215.265C609.5 213.547 606.724 213.875 609.089 211.182C611.542 208.401 609.417 205.708 609.417 201.87C609.417 198.114 609.745 195.338 611.458 193.62C613.177 191.906 619.38 185.698 623.141 181.208C626.896 176.713 630 176.062 635.146 176.39C640.292 176.713 636.208 177.448 639.307 181.531C642.412 185.698 643.068 191.495 646.495 195.661C649.927 199.828 650.255 195.01 653.031 193.62C655.807 192.234 654.094 197.703 656.135 201.87C658.177 206.036 656.787 211.505 656.787 215.265C656.787 219.021 661.281 222.859 663.974 226.291C666.75 229.719 665.688 231.437 663.974 232.823C662.26 234.213 658.828 229.39 656.052 226.614C653.276 223.838 649.193 225.552 651.969 228.656C654.745 231.76 656.458 237.234 659.563 243.114C662.667 248.995 669.203 255.854 673.693 261.979C678.188 268.187 692.557 270.88 698.115 270.88C703.016 270.635 714.042 275.458 719.51 276.109ZM480.948 142.739C478.906 146.823 477.844 149.599 474.74 148.62C471.635 147.557 461.349 147.969 456.203 146.25C451.057 144.536 443.458 141.432 442.073 145.187C440.682 148.948 445.5 152.052 436.927 148.948C428.349 145.844 419.042 142.083 418.063 139.307C417 136.531 421.49 129.021 415.281 129.021C409.078 129.021 400.5 128.693 397.724 130.734C394.948 132.776 384.328 136.614 380.901 135.552C377.797 134.656 372.979 133.51 378.531 131.062C384.005 128.693 390.537 130 391.271 126.568C391.927 123.135 386.453 122.484 391.927 119.38C397.396 116.276 395.354 113.5 399.115 111.786C402.87 110.073 408.016 110.396 410.792 109.416C413.568 108.354 409.729 107.375 415.281 110.479C420.755 113.583 424.188 119.38 426.964 119.791C429.74 120.114 431.453 122.156 429.74 123.547C428.026 124.932 425.25 125.916 424.266 125.916C423.203 125.916 422.552 128.693 423.615 129.021C424.677 129.344 427.047 133.838 428.76 132.448C430.474 131.062 428.76 129.021 431.865 127.958C434.969 126.896 438.068 125.588 436.682 123.463C435.292 121.422 433.906 118.974 436.682 120.359C439.458 121.75 441.828 121.015 438.724 117.995C435.62 114.89 434.557 114.89 430.802 112.114C427.042 109.333 422.88 107.948 422.88 105.906C422.88 103.864 420.51 100.026 424.266 101.411C428.026 102.802 441.094 109.989 441.094 112.765C441.094 115.541 444.521 120.359 441.417 122.729C438.313 125.099 444.521 125.833 445.912 127.224C447.297 128.609 446.563 132.364 450.401 131.713C454.162 131.062 456.938 131.385 454.896 127.547C452.854 123.791 449.422 122.078 452.854 120.687C456.281 119.297 457.016 117.583 458 123.463C459.057 129.344 457.672 131.385 465.922 131.713C474.167 132.041 479.641 129.672 480.703 132.041C481.599 134.489 482.99 138.656 480.948 142.739ZM494.344 117.01C488.87 116.687 479.557 114.969 475.068 114.969C470.573 114.969 468.859 115.625 468.859 115.625C465.104 114.969 456.12 117.338 460.609 111.458C465.104 105.578 462.328 98.0623 467.797 100.104C473.271 102.146 473.677 110.073 477.109 105.25C480.542 100.432 484.297 94.9634 485.359 98.7186C486.422 102.474 480.542 105.578 487.729 108.682C494.995 111.87 499.813 117.338 494.344 117.01ZM527.339 129.672C522.193 129.672 515.984 128.609 515.984 125.916V119.38C513.208 112.849 509.776 111.458 509.776 106.969C509.776 102.474 512.557 98.7186 518.026 98.7186C523.5 98.7186 526.276 98.0623 522.109 102.802C518.026 107.62 514.188 107.948 519.74 115.541C525.297 123.135 532.484 129.672 527.339 129.672Z" fill="#529945" style="fill:#529945;fill:color(display-p3 0.3216 0.6000 0.2706);fill-opacity:1;"/>
<path d="M790.484 308.208C786.974 299.302 786.974 292.365 785.094 288.526C783.136 284.688 784.688 280.031 778.886 280.031C776.521 280.031 776.599 281.583 774.641 286.563C772.682 291.547 775.047 300.854 769.984 299.714C765.005 298.568 762.635 296.203 761.49 291.219C760.349 286.234 763.042 281.583 759.203 281.583C755.365 281.583 744.505 278.885 741.807 283.135C739.115 287.38 742.542 288.932 736.828 288.932C731.026 288.932 728.74 288.932 725.635 292.771C722.531 296.609 718.287 307.474 701.708 308.208C685.13 308.943 693.62 317.844 693.62 327.479C693.62 337.12 684.719 342.917 688.641 346.427C692.479 349.943 687.495 354.516 695.583 351.818C703.667 349.125 711.016 348.307 723.76 346.427C736.5 344.469 742.297 343.734 742.708 349.943C743.115 356.146 741.156 351.901 746.219 353.047C751.281 354.188 745.813 362.354 751.609 363.089C757.406 363.823 753.896 368.073 758.958 368.073C763.943 368.073 765.901 373.464 761.656 373.464C757.406 373.464 751.198 382.365 757.406 379.26C763.615 376.156 769.74 375.422 769.74 370.766C769.74 366.115 769.005 365.786 776.276 359.984C783.625 354.188 800.609 340.302 799.469 329.115C798.245 317.927 793.995 317.109 790.484 308.208Z" fill="#529945" style="fill:#529945;fill:color(display-p3 0.3216 0.6000 0.2706);fill-opacity:1;"/>
<mask id="mask0_153_156" style="mask-type:luminance" maskUnits="userSpaceOnUse" x="799" y="353" width="45" height="38">
<path d="M799 353.668H843.958V391.001H799V353.668Z" fill="white" style="fill:white;fill-opacity:1;"/>
</mask>
<g mask="url(#mask0_153_156)">
<path d="M841.12 354.595C838.016 353.048 838.016 355.74 836.141 361.537C834.177 367.339 824.542 369.626 822.99 370.85C821.438 371.996 818.333 375.506 818.333 375.506C810.984 380.162 796.693 384.813 800.203 388.652C803.714 392.49 806 390.204 814.495 385.959C822.99 381.714 825.276 376.324 829.932 373.22C834.589 370.115 837.281 370.522 840.714 366.683C844.224 362.683 844.224 356.147 841.12 354.6V354.595Z" fill="#529945" style="fill:#529945;fill:color(display-p3 0.3216 0.6000 0.2706);fill-opacity:1;"/>
</g>
<mask id="mask1_153_156" style="mask-type:luminance" maskUnits="userSpaceOnUse" x="0" y="15" width="295" height="403">
<path d="M0.958374 15H295V417.63H0.958374V15Z" fill="white" style="fill:white;fill-opacity:1;"/>
</mask>
<g mask="url(#mask1_153_156)">
<path d="M290.161 258.307C283.953 256.589 283.63 258.63 282.974 255.203C282.323 251.771 278.156 251.771 274.401 251.771C270.641 251.771 269.255 251.443 266.151 248.667C263.047 245.891 256.516 245.562 254.474 244.911C252.427 244.255 253.411 238.375 249.328 232.906C245.161 227.432 236.583 226.37 231.115 223.266C225.641 220.167 227.354 208.156 219.432 209.141C211.51 210.198 210.859 213.302 203.589 209.464C196.401 205.708 191.583 203.26 187.745 206.036C183.99 208.812 179.172 213.958 176.719 215.344C174.349 216.734 170.188 214.286 167.818 214.693C165.448 215.021 162.672 212.24 160.958 209.875C159.24 207.505 164.063 195.417 159.568 195.417C155.078 195.417 149.276 193.375 149.276 191.661C149.276 189.948 158.589 179.656 155.813 177.937C153.036 176.224 147.563 177.286 142.745 183.818C137.927 190.354 133.432 190.026 131.068 187.578C128.698 185.208 123.141 171.078 127.635 163.156C132.125 155.234 139.313 151.479 144.786 151.807C150.26 152.13 149.604 150.417 155.078 150.089C160.547 149.766 167.49 151.479 168.797 153.521C170.188 155.562 167.411 158.99 170.839 163.156C174.271 167.24 176.313 165.526 176.719 167.24C177.047 168.958 173.943 170.672 172.635 170.672C171.25 170.672 159.896 173.776 164.385 175.818C168.88 177.859 176.802 176.141 178.516 178.922C180.229 181.698 173.047 187.495 183.333 187.823C193.625 188.151 200.484 189.536 206.365 189.865C212.245 190.193 216.328 190.516 216.984 191.906C217.635 193.292 221.802 186.76 212.167 186.76C202.526 186.76 195.016 181.286 189.786 180.229C184.641 179.167 181.214 175.734 180.885 171.651C180.557 167.484 181.214 164.464 179.172 161.031C177.13 157.604 171.984 149.354 176.802 145.927C181.62 142.495 191.255 135.958 193.625 131.469C195.995 126.979 195.995 125.995 201.547 122.568C207.021 119.135 213.552 114.646 216.656 111.542C219.76 108.437 224.906 103.62 225.969 106.068C227.031 108.437 231.849 109.172 237.646 107.13C243.526 105.089 250.714 99.9427 244.505 99.9427C238.302 99.9427 234.542 98.2291 236.26 95.8593C237.974 93.4896 232.177 92.427 230.38 92.7552C228.661 93.0833 228.661 89.3281 234.542 88.2656C240.422 87.2031 235.604 92.427 240.422 92.0208C245.245 91.6927 248.344 87.9375 251.776 87.2031C255.208 86.5468 256.594 89.5729 252.104 92.6718C247.609 95.776 246.224 94.7187 252.104 96.1041C257.984 97.4948 259.698 100.599 263.13 97.4948C266.557 94.3906 262.474 93.3281 262.068 89.2448C261.74 85.1614 262.719 77.5625 258.964 74.7864C255.208 72.0104 255.208 68.5833 255.208 65.8854C255.208 63.1093 255.859 57.3125 252.104 60.0052C248.344 62.7812 245.245 64.5 243.854 63.1093C242.464 61.7187 244.505 58.9427 241.484 56.901C238.38 54.8593 238.057 51.7552 234.297 52.0833C230.542 52.4114 226.703 49.3073 224.661 53.7968C222.62 58.2916 220.495 62.0468 219.844 63.4375C219.188 64.8229 222.214 69.6406 219.516 72.0104C216.74 74.3802 209.224 77.8906 208.161 80.2604C207.104 82.6302 203.016 88.8333 201.958 84.75C200.896 80.6666 205.385 74.4635 199.177 72.7448C192.974 71.0312 188.156 72.4218 187.172 68.6614C186.115 64.9062 183.417 61.4739 189.542 58.3698C195.75 55.2708 201.958 49.7968 207.755 49.0625C213.635 48.4062 209.469 53.2291 214.286 52.8177C219.109 52.4895 213.635 50.0416 219.432 49.0625C225.313 48 224.255 48 222.536 45.9583C220.823 43.9166 221.885 43.5885 226.297 41.4635C230.786 39.4218 227.354 38.0364 231.766 36.3229C236.26 34.6041 237.24 32.8906 239.688 32.8906C242.057 32.8906 241.729 33.9531 240.344 37.0573C238.953 40.1614 237.974 42.2031 242.057 40.1614C246.224 38.1198 248.266 36.7291 245.161 39.8333C242.057 42.9375 240.016 42.9375 235.526 43.5885C231.031 44.2448 232.422 44.9791 234.464 47.3489C236.505 49.7135 241.651 50.125 243.365 51.4323C245.078 52.8177 247.12 57.6354 251.286 55.1875C255.37 52.8177 252.349 52.4114 257.818 50.0416C263.292 47.6718 271.214 46.2864 270.563 43.1823C269.906 40.0781 264.354 38.3645 263.698 34.6041C263.047 30.8489 271.297 28.7239 260.599 27.0104C249.979 25.2968 256.104 23.9062 250.958 23.9062C245.813 23.9062 236.177 23.9062 232.745 25.6198C229.318 27.3385 227.276 24.5625 225.557 27.3385C223.844 30.1145 225.885 33.8698 224.172 33.8698C222.458 33.8698 219.354 36.6458 217.964 33.8698C216.578 31.0937 213.474 28.401 217.635 27.3385C221.719 26.276 222.458 27.0104 223.109 23.9062C223.76 20.802 217.229 21.1302 221.068 20.4739C224.823 19.8229 226.542 20.802 231.688 20.802C236.828 20.802 248.51 22.8437 250.224 19.7395C251.938 16.6354 247.448 16.6354 242.302 16.3125C237.156 15.9843 228.172 14.2708 224.417 15.9843C220.661 17.6979 215.839 20.4739 214.125 23.1718C212.411 25.9479 212.411 22.5156 208.979 23.1718C205.552 23.8229 199.672 27.6614 202.771 29.7031C205.875 31.7448 205.875 34.1979 202.448 34.1979C199.016 34.1979 197.953 37.625 195.589 37.625C193.219 37.625 186.682 37.302 189.708 35.5833C192.807 33.8698 196.24 33.8698 195.911 29.7031C195.589 25.5416 199.344 24.2343 199.344 22.8437C199.344 21.4583 191.094 25.9479 184.563 23.9062C178.026 21.8645 175.25 18.7604 168.714 19.0885C162.182 19.4166 153.604 27.9895 157.693 28.7239C161.854 29.3802 164.875 28.0729 165.615 30.1145C166.266 32.1562 164.958 33.8698 167.328 34.9323C169.698 35.9948 174.188 38.6875 168.391 37.302C162.589 35.9114 165.286 33.5416 156.385 33.1354C147.479 32.8073 141.927 30.0312 132.698 32.4843C123.391 34.8489 124.776 36.9739 118.568 34.8489C112.365 32.8073 99.2969 27.9895 89.0052 30.0312C78.7136 32.0729 65.974 35.5052 62.8698 37.625C59.7656 39.6666 65.974 41.7135 60.5 42.1198C55.0313 42.4479 41.9635 42.1198 44.6563 45.552C47.4323 48.9791 50.8646 49.3073 46.6979 50.0416C42.6146 50.6927 37.0625 51.1041 35.0208 54.125C32.9792 57.2291 25.3802 58.9427 30.1979 60.3333C35.0208 61.7187 42.9427 64.8229 39.5104 65.151C36.0833 65.4791 18.5208 72.3385 11.0052 74.052C3.41147 75.7708 -2.71354 84.0156 3.82292 81.5677C12.151 78.5468 34.4479 71.6041 38.5313 69.8854C42.6146 68.1718 44.4115 69.5625 44.0052 71.927C43.6771 74.2968 48.8229 70.8698 52.9063 67.7656C56.9896 64.6614 56.9896 58.4531 60.5 60.5781C63.9323 62.6198 65.974 60.5781 68.75 59.9218C71.526 59.2708 74.224 57.5573 76.6719 58.8645C79.0417 60.25 85.2448 61.6406 86.9636 63.026C88.6771 64.4166 89.3333 67.5208 87.6146 67.8437C85.9011 68.1718 85.5729 69.8854 85.901 72.6666C86.2292 75.4427 87.6146 77.8125 84.1875 78.5468C80.7552 79.1979 81.4063 83.3646 83.5313 83.0364C85.5729 82.7083 86.9636 81.651 87.2917 79.6093C87.6146 77.5625 92.1094 73.7239 91.4531 76.5052C90.8021 79.2812 89.0833 81.9739 89.0833 84.0989C89.0833 86.1406 86.7188 85.8125 86.3073 87.8541C85.9844 89.8958 86.6354 89.8958 88.349 91.6146C90.0677 93.3281 89.0052 94.3906 88.6771 98.1458C88.349 101.901 78.0625 112.276 76.6719 115.708C75.2813 119.135 76.0208 123.953 76.0208 127.714C76.0208 131.469 74.6302 136.286 78.3854 137.677C82.1458 139.062 82.4688 139.719 82.4688 143.146C82.4688 146.578 82.4688 150.745 84.5104 153.109C86.5521 155.479 85.5729 155.151 85.5729 158.99C85.5729 162.828 87.9427 160.708 88.349 163.812C88.6771 166.917 86.6354 168.302 90.0677 170.672C93.4948 173.042 97.2552 174.755 95.5365 171C93.8229 167.24 92.7604 164.135 91.0469 158.583C89.3333 153.109 88.2708 143.146 90.3906 146.172C92.4323 149.271 95.2136 158.583 98.3125 165.036C101.417 171.568 105.177 170.917 105.177 175.651C105.177 180.474 101.417 184.964 108.932 188.068C116.526 191.172 122 197.703 126.49 196.969C130.984 196.318 133.677 193.542 135.396 196.641C137.109 199.745 140.865 203.828 145.031 203.828C149.115 203.828 150.505 206.604 151.24 210.693C151.891 214.776 154.667 215.51 158.833 216.896C162.917 218.286 163.979 222.776 167.083 222.37C170.188 222.042 174.271 220.656 174.271 223.76C174.271 226.859 175.656 234.375 170.51 239.193C165.37 244.01 162.917 247.443 165.693 250.547C168.469 253.651 166.021 256.755 164.63 259.12C163.245 261.49 165.693 263.615 168.391 267.37C171.167 271.125 174.922 275.62 177.292 283.214C179.661 290.812 183.172 293.505 188.969 295.958C194.849 298.323 199.26 302.49 199.26 308.37C199.26 314.25 198.932 334.177 198.932 339.979C198.932 345.859 202.036 351.656 200.974 356.146C199.917 360.641 200.974 364.396 202.365 366.115C203.755 367.828 203.427 371.583 203.755 375.422C204.078 379.177 208.245 376.484 208.245 379.917C208.245 383.344 206.531 388.49 208.573 390.203C210.615 391.922 206.203 398.125 215.432 403.927C224.745 409.807 225.396 410.135 226.052 411.115C226.703 412.177 229.807 409.073 229.807 410.786C229.807 412.5 224.661 417.646 234.297 417.646C243.938 417.646 249.734 419.036 243.938 414.542C238.057 410.052 234.625 412.177 233.646 407.682C232.583 403.193 231.276 403.927 230.542 400.823C229.891 397.719 232.99 396.333 231.932 393.229C230.87 390.125 226.786 390.125 227.109 387.021C227.438 383.917 229.891 380.812 230.542 379.427C231.193 378.036 231.193 376.646 229.479 375.339C227.766 373.953 228.094 373.625 230.542 372.891C232.99 372.24 233.318 373.219 234.297 369.786C235.359 366.359 238.38 366.682 239.771 365.703C241.161 364.641 245.979 363.333 244.26 358.844C242.547 354.349 239.12 352.307 242.875 352.307C246.63 352.307 250.469 351.984 252.839 347.167C255.208 342.344 254.229 341.286 257.005 337.526C259.781 333.771 260.109 330.667 260.109 327.891C260.109 325.115 258.719 322.417 262.474 320.703C266.234 318.99 278.646 316.948 280.359 311.802C282.078 306.656 283.792 301.182 283.141 295.63C282.484 290.156 282.078 286.729 285.917 282.234C289.672 277.745 294.49 273.984 294.49 269.901C294.573 265.818 296.37 260.021 290.161 258.307Z" fill="#529945" style="fill:#529945;fill:color(display-p3 0.3216 0.6000 0.2706);fill-opacity:1;"/>
</g>
<mask id="mask2_153_156" style="mask-type:luminance" maskUnits="userSpaceOnUse" x="176" y="0" width="205" height="62">
<path d="M176.333 0.628906H380.333V61.6654H176.333V0.628906Z" fill="white" style="fill:white;fill-opacity:1;"/>
</mask>
<g mask="url(#mask2_153_156)">
<path d="M353.787 32.4005C357.542 28.3172 356.563 26.1922 361.708 24.1505C366.854 22.1089 365.464 19.3328 364.813 15.2495C364.156 11.0828 364.813 12.8797 366.854 11.4943C368.896 10.1036 371.995 9.12448 376.818 8.71302C381.635 8.39011 377.141 6.67136 377.141 4.62969C377.141 2.58802 373.714 2.91615 368.896 3.56719C364.073 4.22344 364.813 3.56719 361.297 2.18177C357.87 0.791147 337.615 0.791147 332.385 0.791147C327.24 0.791147 317.932 1.85365 313.109 2.18177C308.292 2.5099 308.62 2.18177 299.391 1.11927C290.078 0.0567721 265.74 0.791147 256.76 1.77552C247.854 2.83281 241.323 3.81719 235.443 7.65573C229.563 11.4109 225.802 10.0203 219.271 10.7547C212.74 11.4109 212.083 11.4109 208.979 11.4109C205.875 11.4109 206.203 9.6974 200.729 11.7391C195.26 13.7807 196.974 15.1661 194.849 12.3901C192.807 9.61406 190.031 12.3901 180.396 14.7599C170.755 17.1297 183.823 19.9057 186.927 20.9682C186.927 20.9682 193.464 20.6401 197.219 19.5776C200.974 18.5151 202.693 20.9682 205.141 20.2286C207.51 19.5776 208.245 17.1297 221.964 14.0255C235.688 10.9214 245.323 13.3693 250.88 15.7391C256.349 18.1089 256.349 16.8016 261.167 13.6974C265.99 10.5932 274.234 8.22344 282.813 6.83802C291.385 5.4474 285.917 8.55156 280.443 10.5932C274.969 12.6349 270.151 11.9839 271.13 15.4109C272.193 18.8432 282.813 17.7807 285.917 17.7807C289.021 17.7807 289.344 22.5984 289.672 25.3745C290 28.1505 289.344 29.5411 290 32.2391C290.651 35.0151 292.37 34.6036 289.344 37.3797C286.24 40.1609 284.526 39.7495 284.526 44.5672C284.526 49.3901 286.568 54.5307 291.385 57.963C296.208 61.3953 298.984 61.7182 301.677 56.2495C304.453 50.7755 310.99 47.3484 314.417 45.6297C317.849 43.9161 322.667 45.6297 327.162 41.5464C331.651 37.463 337.448 39.1766 343.984 37.0568C350.682 35.1766 349.948 36.5672 353.787 32.4005Z" fill="#529945" style="fill:#529945;fill:color(display-p3 0.3216 0.6000 0.2706);fill-opacity:1;"/>
</g>
<path d="M360.646 40.3248C350.354 41.7154 340.719 38.2831 342.432 43.7571C344.146 49.2258 344.474 57.4758 350.026 55.7623C359.5 52.8196 369.953 51.2675 367.589 46.8561C365.057 42.3665 370.938 38.9342 360.646 40.3248Z" fill="#529945" style="fill:#529945;fill:color(display-p3 0.3216 0.6000 0.2706);fill-opacity:1;"/>
<mask id="mask3_153_156" style="mask-type:luminance" maskUnits="userSpaceOnUse" x="688" y="218" width="35" height="56">
<path d="M688.88 218.285H722.88V273.285H688.88V218.285Z" fill="white" style="fill:white;fill-opacity:1;"/>
</mask>
<g mask="url(#mask3_153_156)">
<path fillRule="evenodd" clipRule="evenodd" d="M705.781 273.092C704.537 266.982 702.344 261.904 699.688 257.191C697.719 253.701 695.438 250.477 693.323 247.086C692.62 245.956 692.011 244.763 691.333 243.586C689.979 241.243 688.88 238.519 688.948 234.993C689.016 231.545 690.016 228.779 691.453 226.513C693.818 222.795 697.781 219.748 703.099 218.946C707.443 218.29 711.521 219.394 714.406 221.086C716.771 222.467 718.599 224.31 719.99 226.487C721.438 228.753 722.438 231.435 722.521 234.93C722.568 236.722 722.271 238.383 721.86 239.758C721.443 241.149 720.771 242.316 720.172 243.56C719 245.987 717.537 248.211 716.068 250.435C711.688 257.066 707.583 263.826 705.781 273.092Z" fill="#FFBD59" style="fill:#FFBD59;fill:color(display-p3 1.0000 0.7412 0.3490);fill-opacity:1;"/>
</g>
<path d="M711.62 234.96C711.62 235.345 711.583 235.725 711.505 236.105C711.432 236.486 711.318 236.85 711.172 237.21C711.021 237.564 710.844 237.902 710.63 238.225C710.412 238.548 710.167 238.845 709.896 239.116C709.625 239.392 709.328 239.632 709.005 239.85C708.682 240.064 708.344 240.246 707.99 240.392C707.63 240.538 707.266 240.652 706.885 240.725C706.505 240.803 706.125 240.84 705.734 240.84C705.349 240.84 704.969 240.803 704.589 240.725C704.208 240.652 703.844 240.538 703.484 240.392C703.13 240.246 702.792 240.064 702.469 239.85C702.146 239.632 701.849 239.392 701.578 239.116C701.302 238.845 701.063 238.548 700.844 238.225C700.63 237.902 700.448 237.564 700.302 237.21C700.156 236.85 700.042 236.486 699.969 236.105C699.891 235.725 699.854 235.345 699.854 234.96C699.854 234.569 699.891 234.189 699.969 233.809C700.042 233.428 700.156 233.064 700.302 232.704C700.448 232.35 700.63 232.012 700.844 231.689C701.063 231.366 701.302 231.069 701.578 230.798C701.849 230.522 702.146 230.283 702.469 230.064C702.792 229.85 703.13 229.668 703.484 229.522C703.844 229.376 704.208 229.262 704.589 229.189C704.969 229.111 705.349 229.074 705.734 229.074C706.125 229.074 706.505 229.111 706.885 229.189C707.266 229.262 707.63 229.376 707.99 229.522C708.344 229.668 708.682 229.85 709.005 230.064C709.328 230.283 709.625 230.522 709.896 230.798C710.167 231.069 710.412 231.366 710.63 231.689C710.844 232.012 711.021 232.35 711.172 232.704C711.318 233.064 711.432 233.428 711.505 233.809C711.583 234.189 711.62 234.569 711.62 234.96Z" fill="#EFF0F2" style="fill:#EFF0F2;fill:color(display-p3 0.9373 0.9412 0.9490);fill-opacity:1;"/>
<mask id="mask4_153_156" style="mask-type:luminance" maskUnits="userSpaceOnUse" x="755" y="279" width="35" height="56">
<path d="M755.87 279.113H789.667V334.113H755.87V279.113Z" fill="white" style="fill:white;fill-opacity:1;"/>
</mask>
<g mask="url(#mask4_153_156)">
<path fillRule="evenodd" clipRule="evenodd" d="M772.771 333.919C771.531 327.815 769.333 322.732 766.682 318.023C764.708 314.529 762.427 311.305 760.318 307.919C759.609 306.789 759 305.591 758.323 304.419C756.969 302.07 755.87 299.352 755.943 295.82C756.01 292.372 757.005 289.607 758.443 287.346C760.813 283.628 764.771 280.575 770.089 279.773C774.438 279.117 778.51 280.227 781.401 281.914C783.76 283.294 785.589 285.143 786.979 287.315C788.432 289.586 789.432 292.263 789.516 295.763C789.557 297.555 789.266 299.211 788.849 300.586C788.432 301.982 787.76 303.143 787.162 304.388C785.995 306.815 784.531 309.039 783.057 311.268C778.682 317.893 774.573 324.654 772.771 333.919Z" fill="#FFBD59" style="fill:#FFBD59;fill:color(display-p3 1.0000 0.7412 0.3490);fill-opacity:1;"/>
</g>
<path d="M778.609 295.788C778.609 296.173 778.573 296.559 778.5 296.934C778.422 297.314 778.313 297.684 778.162 298.038C778.016 298.397 777.833 298.736 777.62 299.053C777.406 299.376 777.162 299.673 776.885 299.949C776.615 300.22 776.318 300.465 775.995 300.678C775.677 300.892 775.339 301.074 774.979 301.22C774.625 301.371 774.255 301.48 773.875 301.559C773.495 301.632 773.115 301.668 772.729 301.668C772.344 301.668 771.958 301.632 771.583 301.559C771.203 301.48 770.833 301.371 770.479 301.22C770.12 301.074 769.781 300.892 769.458 300.678C769.141 300.465 768.844 300.22 768.568 299.949C768.297 299.673 768.052 299.376 767.839 299.053C767.625 298.736 767.443 298.397 767.292 298.038C767.146 297.684 767.037 297.314 766.958 296.934C766.885 296.559 766.844 296.173 766.844 295.788C766.844 295.402 766.885 295.017 766.958 294.642C767.037 294.262 767.146 293.892 767.292 293.538C767.443 293.178 767.625 292.84 767.839 292.517C768.052 292.199 768.297 291.902 768.568 291.626C768.844 291.355 769.141 291.111 769.458 290.897C769.781 290.684 770.12 290.501 770.479 290.35C770.833 290.204 771.203 290.095 771.583 290.017C771.958 289.944 772.344 289.902 772.729 289.902C773.115 289.902 773.495 289.944 773.875 290.017C774.255 290.095 774.625 290.204 774.979 290.35C775.339 290.501 775.677 290.684 775.995 290.897C776.318 291.111 776.615 291.355 776.885 291.626C777.162 291.902 777.406 292.199 777.62 292.517C777.833 292.84 778.016 293.178 778.162 293.538C778.313 293.892 778.422 294.262 778.5 294.642C778.573 295.017 778.609 295.402 778.609 295.788Z" fill="#EFF0F2" style="fill:#EFF0F2;fill:color(display-p3 0.9373 0.9412 0.9490);fill-opacity:1;"/>
<mask id="mask5_153_156" style="mask-type:luminance" maskUnits="userSpaceOnUse" x="586" y="47" width="35" height="55">
<path d="M586.599 47H620.333V101.615H586.599V47Z" fill="white" style="fill:white;fill-opacity:1;"/>
</mask>
<g mask="url(#mask5_153_156)">
<path fillRule="evenodd" clipRule="evenodd" d="M603.5 101.424C602.255 95.3143 600.063 90.2361 597.406 85.5226C595.432 82.033 593.151 78.8091 591.042 75.4184C590.333 74.2882 589.729 73.0955 589.047 71.9184C587.693 69.5747 586.599 66.8507 586.667 63.3247C586.734 59.8768 587.734 57.1111 589.172 54.8455C591.537 51.1268 595.5 48.0799 600.813 47.2778C605.162 46.6216 609.234 47.7257 612.125 49.4184C614.484 50.7986 616.318 52.6424 617.708 54.8195C619.156 57.0851 620.156 59.7674 620.24 63.2622C620.281 65.0539 619.99 66.7153 619.578 68.0903C619.156 69.4809 618.484 70.6476 617.885 71.8924C616.719 74.3195 615.255 76.5434 613.787 78.7674C609.406 85.3976 605.297 92.158 603.5 101.424Z" fill="#FFBD59" style="fill:#FFBD59;fill:color(display-p3 1.0000 0.7412 0.3490);fill-opacity:1;"/>
</g>
<path d="M609.333 63.2826C609.333 63.6732 609.297 64.0534 609.224 64.4336C609.146 64.8138 609.037 65.1784 608.891 65.5378C608.74 65.8919 608.557 66.2305 608.344 66.5534C608.13 66.8763 607.885 67.1732 607.615 67.444C607.339 67.7201 607.042 67.9596 606.724 68.1784C606.401 68.3919 606.063 68.5742 605.703 68.7201C605.349 68.8659 604.979 68.9805 604.599 69.0534C604.224 69.1315 603.839 69.168 603.453 69.168C603.068 69.168 602.682 69.1315 602.307 69.0534C601.927 68.9805 601.557 68.8659 601.203 68.7201C600.844 68.5742 600.505 68.3919 600.188 68.1784C599.865 67.9596 599.568 67.7201 599.292 67.444C599.021 67.1732 598.776 66.8763 598.563 66.5534C598.349 66.2305 598.167 65.8919 598.021 65.5378C597.87 65.1784 597.76 64.8138 597.682 64.4336C597.609 64.0534 597.573 63.6732 597.573 63.2826C597.573 62.8971 597.609 62.5169 597.682 62.1367C597.76 61.7565 597.87 61.3919 598.021 61.0326C598.167 60.6784 598.349 60.3398 598.563 60.0169C598.776 59.694 599.021 59.3971 599.292 59.1263C599.568 58.8503 599.865 58.6107 600.188 58.3919C600.505 58.1784 600.844 57.9961 601.203 57.8503C601.557 57.7044 601.927 57.5898 602.307 57.5169C602.682 57.4388 603.068 57.4023 603.453 57.4023C603.839 57.4023 604.224 57.4388 604.599 57.5169C604.979 57.5898 605.349 57.7044 605.703 57.8503C606.063 57.9961 606.401 58.1784 606.724 58.3919C607.042 58.6107 607.339 58.8503 607.615 59.1263C607.885 59.3971 608.13 59.694 608.344 60.0169C608.557 60.3398 608.74 60.6784 608.891 61.0326C609.037 61.3919 609.146 61.7565 609.224 62.1367C609.297 62.5169 609.333 62.8971 609.333 63.2826Z" fill="#EFF0F2" style="fill:#EFF0F2;fill:color(display-p3 0.9373 0.9412 0.9490);fill-opacity:1;"/>
<mask id="mask6_153_156" style="mask-type:luminance" maskUnits="userSpaceOnUse" x="442" y="240" width="35" height="55">
<path d="M442.031 240.332H476.031V294.999H442.031V240.332Z" fill="white" style="fill:white;fill-opacity:1;"/>
</mask>
<g mask="url(#mask6_153_156)">
<path fillRule="evenodd" clipRule="evenodd" d="M458.932 294.9C457.688 288.79 455.495 283.712 452.839 279.004C450.87 275.509 448.589 272.285 446.474 268.895C445.771 267.764 445.162 266.572 444.484 265.4C443.13 263.051 442.031 260.332 442.099 256.801C442.167 253.353 443.167 250.587 444.604 248.322C446.969 244.603 450.932 241.556 456.25 240.754C460.594 240.098 464.672 241.207 467.563 242.895C469.922 244.275 471.75 246.118 473.141 248.296C474.594 250.561 475.589 253.243 475.672 256.738C475.719 258.53 475.422 260.191 475.011 261.566C474.594 262.957 473.922 264.124 473.323 265.368C472.151 267.796 470.688 270.02 469.219 272.243C464.844 278.874 460.734 285.634 458.932 294.9Z" fill="#FFBD59" style="fill:#FFBD59;fill:color(display-p3 1.0000 0.7412 0.3490);fill-opacity:1;"/>
</g>
<path d="M464.771 256.764C464.771 257.15 464.734 257.53 464.656 257.91C464.583 258.29 464.469 258.655 464.323 259.014C464.177 259.368 463.995 259.707 463.781 260.03C463.563 260.353 463.323 260.65 463.047 260.921C462.776 261.197 462.479 261.436 462.156 261.655C461.833 261.868 461.495 262.051 461.141 262.197C460.781 262.342 460.417 262.457 460.036 262.53C459.656 262.608 459.276 262.645 458.891 262.645C458.5 262.645 458.12 262.608 457.74 262.53C457.359 262.457 456.995 262.342 456.635 262.197C456.281 262.051 455.943 261.868 455.62 261.655C455.297 261.436 455 261.197 454.729 260.921C454.453 260.65 454.214 260.353 453.995 260.03C453.781 259.707 453.599 259.368 453.453 259.014C453.307 258.655 453.193 258.29 453.12 257.91C453.042 257.53 453.005 257.15 453.005 256.764C453.005 256.374 453.042 255.993 453.12 255.613C453.193 255.238 453.307 254.868 453.453 254.509C453.599 254.155 453.781 253.816 453.995 253.493C454.214 253.171 454.453 252.874 454.729 252.603C455 252.332 455.297 252.087 455.62 251.874C455.943 251.655 456.281 251.478 456.635 251.327C456.995 251.181 457.359 251.066 457.74 250.993C458.12 250.915 458.5 250.879 458.891 250.879C459.276 250.879 459.656 250.915 460.036 250.993C460.417 251.066 460.781 251.181 461.141 251.327C461.495 251.478 461.833 251.655 462.156 251.874C462.479 252.087 462.776 252.332 463.047 252.603C463.323 252.874 463.563 253.171 463.781 253.493C463.995 253.816 464.177 254.155 464.323 254.509C464.469 254.868 464.583 255.238 464.656 255.613C464.734 255.993 464.771 256.374 464.771 256.764Z" fill="#EFF0F2" style="fill:#EFF0F2;fill:color(display-p3 0.9373 0.9412 0.9490);fill-opacity:1;"/>
<mask id="mask7_153_156" style="mask-type:luminance" maskUnits="userSpaceOnUse" x="378" y="47" width="35" height="55">
<path d="M378.833 47H412.833V101.615H378.833V47Z" fill="white" style="fill:white;fill-opacity:1;"/>
</mask>
<g mask="url(#mask7_153_156)">
<path fillRule="evenodd" clipRule="evenodd" d="M395.734 101.424C394.49 95.3143 392.297 90.2361 389.641 85.5226C387.672 82.033 385.385 78.8091 383.276 75.4184C382.573 74.2882 381.964 73.0955 381.286 71.9184C379.932 69.5747 378.833 66.8507 378.901 63.3247C378.969 59.8768 379.969 57.1111 381.406 54.8455C383.771 51.1268 387.734 48.0799 393.047 47.2778C397.396 46.6216 401.469 47.7257 404.359 49.4184C406.724 50.7986 408.552 52.6424 409.943 54.8195C411.391 57.0851 412.391 59.7674 412.474 63.2622C412.516 65.0539 412.224 66.7153 411.813 68.0903C411.396 69.4809 410.719 70.6476 410.125 71.8924C408.953 74.3195 407.49 76.5434 406.021 78.7674C401.641 85.3976 397.531 92.158 395.734 101.424Z" fill="#FFBD59" style="fill:#FFBD59;fill:color(display-p3 1.0000 0.7412 0.3490);fill-opacity:1;"/>
</g>
<path d="M401.573 63.2826C401.573 63.6732 401.531 64.0534 401.458 64.4336C401.385 64.8138 401.271 65.1784 401.125 65.5378C400.974 65.8919 400.797 66.2305 400.578 66.5534C400.365 66.8763 400.12 67.1732 399.849 67.444C399.573 67.7201 399.276 67.9596 398.958 68.1784C398.635 68.3919 398.297 68.5742 397.938 68.7201C397.583 68.8659 397.214 68.9805 396.839 69.0534C396.458 69.1315 396.073 69.168 395.688 69.168C395.302 69.168 394.922 69.1315 394.542 69.0534C394.162 68.9805 393.797 68.8659 393.438 68.7201C393.083 68.5742 392.74 68.3919 392.422 68.1784C392.099 67.9596 391.802 67.7201 391.531 67.444C391.255 67.1732 391.01 66.8763 390.797 66.5534C390.583 66.2305 390.401 65.8919 390.255 65.5378C390.104 65.1784 389.995 64.8138 389.922 64.4336C389.844 64.0534 389.807 63.6732 389.807 63.2826C389.807 62.8971 389.844 62.5169 389.922 62.1367C389.995 61.7565 390.104 61.3919 390.255 61.0326C390.401 60.6784 390.583 60.3398 390.797 60.0169C391.01 59.694 391.255 59.3971 391.531 59.1263C391.802 58.8503 392.099 58.6107 392.422 58.3919C392.74 58.1784 393.083 57.9961 393.438 57.8503C393.797 57.7044 394.162 57.5898 394.542 57.5169C394.922 57.4388 395.302 57.4023 395.688 57.4023C396.073 57.4023 396.458 57.4388 396.839 57.5169C397.214 57.5898 397.583 57.7044 397.938 57.8503C398.297 57.9961 398.635 58.1784 398.958 58.3919C399.276 58.6107 399.573 58.8503 399.849 59.1263C400.12 59.3971 400.365 59.694 400.578 60.0169C400.797 60.3398 400.974 60.6784 401.125 61.0326C401.271 61.3919 401.385 61.7565 401.458 62.1367C401.531 62.5169 401.573 62.8971 401.573 63.2826Z" fill="#EFF0F2" style="fill:#EFF0F2;fill:color(display-p3 0.9373 0.9412 0.9490);fill-opacity:1;"/>
<mask id="mask8_153_156" style="mask-type:luminance" maskUnits="userSpaceOnUse" x="124" y="47" width="35" height="55">
<path d="M124.932 47H158.932V101.615H124.932V47Z" fill="white" style="fill:white;fill-opacity:1;"/>
</mask>
<g mask="url(#mask8_153_156)">
<path fillRule="evenodd" clipRule="evenodd" d="M141.833 101.424C140.589 95.3143 138.396 90.2361 135.74 85.5226C133.771 82.033 131.49 78.8091 129.375 75.4184C128.672 74.2882 128.063 73.0955 127.385 71.9184C126.031 69.5747 124.932 66.8507 125 63.3247C125.068 59.8768 126.068 57.1111 127.505 54.8455C129.87 51.1268 133.833 48.0799 139.151 47.2778C143.495 46.6216 147.573 47.7257 150.458 49.4184C152.823 50.7986 154.651 52.6424 156.042 54.8195C157.49 57.0851 158.49 59.7674 158.573 63.2622C158.62 65.0539 158.323 66.7153 157.912 68.0903C157.495 69.4809 156.823 70.6476 156.224 71.8924C155.052 74.3195 153.589 76.5434 152.12 78.7674C147.74 85.3976 143.635 92.158 141.833 101.424Z" fill="#FFBD59" style="fill:#FFBD59;fill:color(display-p3 1.0000 0.7412 0.3490);fill-opacity:1;"/>
</g>
<path d="M147.672 63.2826C147.672 63.6732 147.635 64.0534 147.557 64.4336C147.484 64.8138 147.37 65.1784 147.224 65.5378C147.078 65.8919 146.896 66.2305 146.682 66.5534C146.464 66.8763 146.219 67.1732 145.948 67.444C145.677 67.7201 145.38 67.9596 145.057 68.1784C144.734 68.3919 144.396 68.5742 144.042 68.7201C143.682 68.8659 143.318 68.9805 142.938 69.0534C142.557 69.1315 142.177 69.168 141.786 69.168C141.401 69.168 141.021 69.1315 140.641 69.0534C140.26 68.9805 139.896 68.8659 139.536 68.7201C139.182 68.5742 138.844 68.3919 138.521 68.1784C138.198 67.9596 137.901 67.7201 137.63 67.444C137.354 67.1732 137.115 66.8763 136.896 66.5534C136.682 66.2305 136.5 65.8919 136.354 65.5378C136.208 65.1784 136.094 64.8138 136.021 64.4336C135.943 64.0534 135.906 63.6732 135.906 63.2826C135.906 62.8971 135.943 62.5169 136.021 62.1367C136.094 61.7565 136.208 61.3919 136.354 61.0326C136.5 60.6784 136.682 60.3398 136.896 60.0169C137.115 59.694 137.354 59.3971 137.63 59.1263C137.901 58.8503 138.198 58.6107 138.521 58.3919C138.844 58.1784 139.182 57.9961 139.536 57.8503C139.896 57.7044 140.26 57.5898 140.641 57.5169C141.021 57.4388 141.401 57.4023 141.786 57.4023C142.177 57.4023 142.557 57.4388 142.938 57.5169C143.318 57.5898 143.682 57.7044 144.042 57.8503C144.396 57.9961 144.734 58.1784 145.057 58.3919C145.38 58.6107 145.677 58.8503 145.948 59.1263C146.219 59.3971 146.464 59.694 146.682 60.0169C146.896 60.3398 147.078 60.6784 147.224 61.0326C147.37 61.3919 147.484 61.7565 147.557 62.1367C147.635 62.5169 147.672 62.8971 147.672 63.2826Z" fill="#EFF0F2" style="fill:#EFF0F2;fill:color(display-p3 0.9373 0.9412 0.9490);fill-opacity:1;"/>
<mask id="mask9_153_156" style="mask-type:luminance" maskUnits="userSpaceOnUse" x="208" y="245" width="35" height="56">
<path d="M208.995 245.699H242.995V300.699H208.995V245.699Z" fill="white" style="fill:white;fill-opacity:1;"/>
</mask>
<g mask="url(#mask9_153_156)">
<path fillRule="evenodd" clipRule="evenodd" d="M225.896 300.503C224.651 294.399 222.458 289.316 219.802 284.607C217.833 281.118 215.547 277.889 213.438 274.503C212.729 273.373 212.125 272.18 211.448 271.003C210.089 268.659 208.995 265.935 209.063 262.409C209.13 258.961 210.13 256.191 211.568 253.93C213.932 250.211 217.896 247.159 223.208 246.357C227.557 245.706 231.63 246.81 234.521 248.503C236.885 249.883 238.714 251.727 240.104 253.899C241.552 256.17 242.552 258.852 242.635 262.347C242.677 264.139 242.385 265.795 241.974 267.175C241.552 268.566 240.88 269.732 240.281 270.972C239.115 273.404 237.651 275.628 236.182 277.852C231.802 284.482 227.693 291.243 225.896 300.503Z" fill="#FFBD59" style="fill:#FFBD59;fill:color(display-p3 1.0000 0.7412 0.3490);fill-opacity:1;"/>
</g>
<path d="M231.734 262.365C231.734 262.75 231.693 263.135 231.62 263.516C231.542 263.891 231.432 264.26 231.287 264.62C231.135 264.974 230.953 265.313 230.74 265.635C230.526 265.953 230.281 266.25 230.01 266.526C229.734 266.797 229.438 267.042 229.12 267.255C228.797 267.474 228.458 267.651 228.099 267.802C227.745 267.948 227.375 268.063 226.995 268.135C226.62 268.208 226.234 268.25 225.849 268.25C225.464 268.25 225.083 268.208 224.703 268.135C224.323 268.063 223.953 267.948 223.599 267.802C223.24 267.651 222.901 267.474 222.583 267.255C222.26 267.042 221.964 266.797 221.693 266.526C221.417 266.25 221.172 265.953 220.958 265.635C220.745 265.313 220.563 264.974 220.417 264.62C220.266 264.26 220.156 263.891 220.078 263.516C220.005 263.135 219.969 262.75 219.969 262.365C219.969 261.979 220.005 261.599 220.078 261.219C220.156 260.839 220.266 260.474 220.417 260.115C220.563 259.76 220.745 259.417 220.958 259.099C221.172 258.776 221.417 258.479 221.693 258.208C221.964 257.932 222.26 257.687 222.583 257.474C222.901 257.26 223.24 257.078 223.599 256.932C223.953 256.781 224.323 256.672 224.703 256.599C225.083 256.521 225.464 256.484 225.849 256.484C226.234 256.484 226.62 256.521 226.995 256.599C227.375 256.672 227.745 256.781 228.099 256.932C228.458 257.078 228.797 257.26 229.12 257.474C229.438 257.687 229.734 257.932 230.01 258.208C230.281 258.479 230.526 258.776 230.74 259.099C230.953 259.417 231.135 259.76 231.287 260.115C231.432 260.474 231.542 260.839 231.62 261.219C231.693 261.599 231.734 261.979 231.734 262.365Z" fill="#EFF0F2" style="fill:#EFF0F2;fill:color(display-p3 0.9373 0.9412 0.9490);fill-opacity:1;"/>
</svg>
